<svg xmlns="http://www.w3.org/2000/svg" viewBox="0 0 512 512" shape-rendering="geometricPrecision">
  <title>Show Chango</title>
  <desc>Cara de chango de circo con sombrero de copa, enmarcada por cortinas rojas, bajo un spotlight.</desc>

  <rect width="512" height="512" fill="#0B0B0C"/>
  <ellipse cx="256" cy="320" rx="190" ry="210" fill="#5B8CFF" opacity="0.07"/>
  <path d="M256 -40 L30 512 L482 512 Z" fill="#5B8CFF" opacity="0.12"/>

  <path d="M0 0 H512 V66
    Q480 86 448 66 Q416 86 384 66 Q352 86 320 66 Q288 86 256 66 Q224 86 192 66 Q160 86 128 66 Q96 86 64 66 Q32 86 0 66 Z"
    fill="#B0123A"/>

  <path d="M0 66 H112 V512 H0 Z" fill="#B0123A"/>
  <rect x="40" y="66" width="10" height="446" fill="#8C0D2D"/>
  <rect x="88" y="66" width="12" height="446" fill="#8C0D2D"/>
  <rect x="102" y="66" width="8" height="446" fill="#C81F43"/>

  <path d="M512 66 H400 V512 H512 Z" fill="#B0123A"/>
  <rect x="462" y="66" width="10" height="446" fill="#8C0D2D"/>
  <rect x="412" y="66" width="12" height="446" fill="#8C0D2D"/>
  <rect x="402" y="66" width="8" height="446" fill="#C81F43"/>

  <circle cx="100" cy="205" r="66" fill="#C27330"/>
  <circle cx="104" cy="210" r="34" fill="#8E4F1A"/>
  <circle cx="412" cy="205" r="66" fill="#C27330"/>
  <circle cx="408" cy="210" r="34" fill="#8E4F1A"/>

  <ellipse cx="256" cy="318" rx="148" ry="152" fill="#C27330"/>

  <ellipse cx="256" cy="378" rx="82" ry="50" fill="#FAEBCD" stroke="#E0C79B" stroke-width="3"/>

  <circle cx="222" cy="292" r="8" fill="#171719"/>
  <circle cx="290" cy="292" r="8" fill="#171719"/>
  <circle cx="241" cy="372" r="5" fill="#171719"/>
  <circle cx="271" cy="372" r="5" fill="#171719"/>
  <path d="M241 400 Q256 410 271 400" fill="none" stroke="#171719" stroke-width="5" stroke-linecap="round"/>

  <path d="M206 176 V104 Q206 96 214 96 H298 Q306 96 306 104 V176 Z"
    fill="#141416" stroke="#E6E6EA" stroke-width="3"/>
  <rect x="222" y="104" width="16" height="46" rx="8" fill="#3A3A40" opacity="0.85"/>
  <rect x="206" y="150" width="100" height="26" fill="#B0123A"/>
  <rect x="206" y="174" width="100" height="2" fill="#8C0D2D"/>
  <ellipse cx="256" cy="188" rx="102" ry="13" fill="#141416" stroke="#E6E6EA" stroke-width="3"/>

  <path d="M184 206 Q256 222 328 206" fill="none" stroke="#8E4F1A" stroke-width="8" opacity="0.55" stroke-linecap="round"/>
</svg>